/* XPM */
static char *result[] = {
/* columns rows colors chars-per-pixel */
"128 128 56 1 ",
"  c #2780C5",
". c #2C83C7",
"X c #2F85C8",
"o c #3085C7",
"O c #3287C8",
"+ c #3589C9",
"@ c #3D8DCB",
"# c #418FCC",
"$ c #4491CD",
"% c #4A94CF",
"& c #4E97D0",
"* c #4F98D0",
"= c #5097D0",
"- c #549AD1",
"; c #5B9ED3",
": c #5EA0D4",
"> c #63A3D5",
", c #69A6D7",
"< c #6BA8D7",
"1 c #6BA7D8",
"2 c #6DA9D8",
"3 c #73ACDA",
"4 c #79AFDB",
"5 c #7CB1DC",
"6 c #83B5DE",
"7 c #87B8DF",
"8 c #88B8DF",
"9 c #87B8E0",
"0 c #8CBAE1",
"q c #92BEE2",
"w c #96C0E3",
"e c #9BC3E5",
"r c #A1C7E6",
"t c #A4C8E7",
"y c #A6CAE8",
"u c #ACCDE9",
"i c #B0CFEA",
"p c #B4D2EC",
"a c #BBD6ED",
"s c #BFD8EF",
"d c #C1D9EF",
"f c #C5DCF0",
"g c #C9DEF1",
"h c #CEE1F3",
"j c #D4E4F4",
"k c #D8E7F5",
"l c #DCEAF7",
"z c #DFEBF8",
"x c #E0ECF7",
"c c #E5EFF9",
"v c #E7F0F9",
"b c #ECF3FB",
"n c #F1F6FC",
"m c #F5F9FE",
"M c #F9FBFE",
"N c None",
/* pixels */
"NNNNNNNNNNNNNNNNNNNNNNNNNNNNNNNNNNNNNNNNNNNNNNNNNNNNNNNNNN;::$+@++@$;>:NNNNNNNNNNNNNNNNNNNNNNNNNNNNNNNNNNNNNNNNNNNNNNNNNNNNNNNNN",
"NNNNNNNNNNNNNNNNNNNNNNNNNNNNNNNNNNNNNNNNNNNNNNNNNNN:>$#@@O@+++5fu-O@+++O+@@$:>NNNNNNNNNNNNNNNNNNNNNNNNNNNNNNNNNNNNNNNNNNNNNNNNNN",
"NNNNNNNNNNNNNNNNNNNNNNNNNNNNNNNNNNNNNNNNNNNNNNN>%@+@+@@@@@@@+qbbnj2O@@@@@@@@++@@%>NNNNNNNNNNNNNNNNNNNNNNNNNNNNNNNNNNNNNNNNNNNNNN",
"NNNNNNNNNNNNNNNNNNNNNNNNNNNNNNNNNNNNNNNNNNNN:$+@@@@@@@@@@@+#ybvvvbbq+@@@@@@@@@@@+@+$>NNNNNNNNNNNNNNNNNNNNNNNNNNNNNNNNNNNNNNNNNNN",
"NNNNNNNNNNNNNNNNNNNNNNNNNNNNNNNNNNNNNNNNN:$+@@@@@#@@@@@@@O=fncccccvbt@@@@@@@@@@@@@@@@+@=NNNNNNNNNNNNNNNNNNNNNNNNNNNNNNNNNNNNNNNN",
"NNNNNNNNNNNNNNNNNNNNNNNNNNNNNNNNNNNNNNN;@+@@@@@@@@@@@@@@O>jbcccccccvba$+$@@@@@@@@@@@@@@@@*NNNNNNNNNNNNNNNNNNNNNNNNNNNNNNNNNNNNNN",
"NNNNNNNNNNNNNNNNNNNNNNNNNNNNNNNNNNNNN$+@@@@@@@@@@@@@@@@+,xbcccccccccvnd%+@@@@@$@@@@@@@@@@++$5NNNNNNNNNNNNNNNNNNNNNNNNNNNNNNNNNNN",
"NNNNNNNNNNNNNNNNNNNNNNNNNNNNNNNNNNN%+@@@@@@@@@@@@@@@@@+3xbcccccccccvvcbg&+@@@@@@@@@@@@@@@@@@+$3NNNNNNNNNNNNNNNNNNNNNNNNNNNNNNNNN",
"NNNNNNNNNNNNNNNNNNNNNNNNNNNNNNNNN%+@@@@@#@@@@@#@@@@@@O5bvcccccbfzvccccvbf$@@@@@@@@@@@@@$@@@@@@+$NNNNNNNNNNNNNNNNNNNNNNNNNNNNNNNN",
"NNNNNNNNNNNNNNNNNNNNNNNNNNNNNNN>+@@@@@@@@@@@@@@@@$@@O3cvvcccccbujvccccvcbf$+@@@@@@$@@@@@@@@#@@@@+-NNNNNNNNNNNNNNNNNNNNNNNNNNNNNN",
"NNNNNNNNNNNNNNNNNNNNNNNNNNNNN3@+@@@@@@@@@@@@@@@@@@@O,vbcccccccbwfvccccccvbp@@@@@@@@@@@@@@@@@@@@@@@+2NNNNNNNNNNNNNNNNNNNNNNNNNNNN",
"NNNNNNNNNNNNNNNNNNNNNNNNNNNN;+@@@$@@@@@@@@@#@@@@@@+;jbcccccccvb6pbcvccccvvmy+@@@@@@@@@@@@#@@@@@@@@@+-NNNNNNNNNNNNNNNNNNNNNNNNNNN",
"NNNNNNNNNNNNNNNNNNNNNNNNNNN@+@@@#@@@@@@@@#@@@@#@@+*jbvccvccccvb4ibvvcccccvvbqO@@$@@@@@@@@@@@@@@@@@@@@O5NNNNNNNNNNNNNNNNNNNNNNNNN",
"NNNNNNNNNNNNNNNNNNNNNNNNN,+@@@@@@@@@@@#@@@@@@@@@@@pbccccccccccb3ubcvvcccccvvb<O@@@@@#@@@@@@@@@#@@@@@@@O:NNNNNNNNNNNNNNNNNNNNNNNN",
"NNNNNNNNNNNNNNNNNNNNNNNN=+@@@#@@@@@@@@@@@#@@@@@@Oebvccccccccccb>ubccccccccccbl=+@@@@@@#@@@#@@@@@@@@@@@@+$NNNNNNNNNNNNNNNNNNNNNNN",
"NNNNNNNNNNNNNNNNNNNNNNN$+@@@@@@@@@@#@@@@@@@@@@@O2bvvvccccccccvv-ubcvcccccccccnp@@@@@@@@@@@@@@@@@@@@@@@@@@+NNNNNNNNNNNNNNNNNNNNNN",
"NNNNNNNNNNNNNNNNNNNNNN@+@@#@@@@@@@#@@@@@@@@#@@@$jbccccccccccvnk#5bvvccccccccvcbqO@@@#@@@@#@@@@@@@$@@@@$@@@+4NNNNNNNNNNNNNNNNNNNN",
"NNNNNNNNNNNNNNNNNNNNN+@@@@@@@@@@@@@@@@@@@@@@#@Oencccccccccccng:++wbbvcccccccccvc-+@@@@@@@@@@@@@@@@@@@@@@@@@+5NNNNNNNNNNNNNNNNNNN",
"NNNNNNNNNNNNNNNNNNNN+@@@@@@@@@$@@@@O@@@@@@@@@O>vccccccccccvbt#oOO+,fnvcccccccccbu+@@@@@@@@@++@@@@@@@@@@@@@@@+5NNNNNNNNNNNNNNNNNN",
"NNNNNNNNNNNNNNNNNNN+@@@@@@@@@@@@@+=4&O+@#@@@@@pbcccccccccbc6Oo:y0$X@pbcccccccccbb>+@@@@#@++,6#@@@@@@@@@@@@@@@O5NNNNNNNNNNNNNNNNN",
"NNNNNNNNNNNNNNNNNNO@@@@@@@@@@@@@@&jnjr;O@@@@+,bcccccccccbj>o+6cnnf=.@rbvccccccccbp@@@@@@O;pbmt+@@@@@@@@@@@@@@@+5NNNNNNNNNNNNNNNN",
"NNNNNNNNNNNNNNNNNO@@@@#@@@@@@@@@@pbcvnci-O@@Oqmccccccccbj-o+qnvcvbz,X+ebcccccccvbc&+@@O&ycncvb4O@@@@@@@@@@@@@@@O6NNNNNNNNNNNNNNN",
"NNNNNNNNNNNNNNNN+@@@@@@@@$@@@@@+0bccccvncr&O@$ibbvccccng-O#uncvvccbc4O+qbccccccbx5+@O$9lbvcccbl=@@@@@@@@@@@@@@@@ONNNNNNNNNNNNNNN",
"NNNNNNNNNNNNNNN$@@@@@@@@@@@@@@@-xvcccccccbl5@O+0cbcccbj=o#pnvccvccvvb5OOqbvccbbg;+O@4jbbccccczbu+$@@@@$@@@@@@@@@@ONNNNNNNNNNNNNN",
"NNNNNNNNNNNNNN=+@@@@@@@@@@@@$@+pnkdbccccccvbp;OO>fncbg-.#dncccvfzcccvb6OO9bvbbe#O+,abbcccccbsybb,+@@@@@@@@@@@@@@@@$NNNNNNNNNNNNN",
"NNNNNNNNNNNNN2O@@@@@$@@@@@@@@O<bvkrvccccccccnx6OO#enj&O$dnccccnygbccvvb9OO5bj,OX&uvbcccccccbuebba@@@@@@@@@@@@@@@@@O-NNNNNNNNNNNN",
"NNNNNNNNNNNNNX@@@@@@@@@@@@@@@@abvcexcccccccccbbu$O+3;O#pncccccb8sbccccvb4O+2=OO,jnvccccccvcbetbcb5O@@@@@@@@@@$@@@@@O5NNNNNNNNNNN",
"NNNNNNNNNNNN@@@@@$@@@@#@@@@@O5bvvvelcccccccccccng-@OO@inccccccb2pbcccccvc2O+@@0vbccccccccvvbwubcbh@@@@@@@$@@@@@@@@@@+NNNNNNNNNNN",
"NNNNNNNNNNN:+@@@@@@@@@@@@@@@@sbccbtgbcccccccccccbj%@@rbvcccccvv;ybccccccbz;O+5nbccccccvcccxb9abcvn3O@@@@@@@@@@@@@@@@+%NNNNNNNNNN",
"NNNNNNNNNN5+@@@@@@@@@#@@@@@+>bvccbuubcccccccccccn0+O9nvccccccvx%rbcccccccbj=+$fbccccvccvcccv,hbcvba@@@@@@@@@@@@@@@@@@O2NNNNNNNNN",
"NNNNNNNNNN@@@@@@@@@@@@@@@@@Oubcccbp0bvcccccccccnp@O,cbcccccccvk#wbvcccccccbf#O:cvvccxccvccbh;zccvvb,@@@@@@$@@@@@@@@@@@ONNNNNNNNN",
"NNNNNNNNN>+@@@$@@@@@@@@@@@@%kbcccbs3bcccccccccbj%O=kbccccccccbg+9mvvccvccccnt+O9bvccvvvxcvby;cvcvxnt+@@@@@@@@@@@$@@@@@@=NNNNNNNN",
"NNNNNNNNNO@@@@@@@@@@@@@@@@+6bvcccbh&jbvbbvcccbv3O@sbcvcccccccbf+4bccccccccccb4oOinccvvvbvcb9,bccvvvl%+@@@@@@@@@@@@@@@@@O6NNNNNNN",
"NNNNNNNN%@@@@@@@@@@@@@@@#@@fbccccvk@yncafzbvcbwOOqbccccccccccbh@>vcccccvccccvx;X;lvcbbgdzbl&4bccvxvb2+@@@@@#@@@@@@@#@@@@@NNNNNNN",
"NNNNNNNNO@@@@@@@@@%@+@@@@@&lvvvvvvz&,b5OO;ulmf@O>bvccccccccvcvh@-xvcccccccccvnd@o9nbg3@+;gpX0bccvxvbu+@@@@@O=%@@@@@@#@@@O5NNNNNN",
"NNNNNNN%@@@@@#@@@+yg,++@@+3ncccvcvv:@3+@%OX&q-+$gbvccccccccccnd+$jbcccccccccccb0o@94@.@&o&-Orbccvvvbh@@@@O$0c3O@#@@@@@@@@@NNNNNN",
"NNNNNNN+@#@@@@@#@@hnvp;O+@&pnbvvccb3++Owlp,O.@O9Mccccccccccccn0O@fvcccccccccccbc&@X @9gk:o@@abccvvbx5@@+@5jbn9O@@@@@@@@@@+2NNNNN",
"NNNNNN$@@@@@@@@@@=zvvnlw$O+@5jbvcvb6++2bbbbp>O+;dbvvccccccccbj#@@incccccccccvbx5@O@9gnvnf#@#jbccbbi:+@+:sbbcbqO@@@@@#@#@@@@NNNNN",
"NNNNNNO@@@@@@@@@+:vvccvnk5@OO$wvbvv2O$jbvvcbcu%X@6cbcccccccvn4O@@-kbcccccccvng;X+3gnbcccn0X@dbvbf,++O&uvbcccba@@@@@@@@@@@@O5NNNN",
"NNNNN:+@@@@@#@@@+4bcccccbbf>+OO-ubz$Xebcccccbbl6@.:gncccccvnr+@@@+;jbcccccvnu$ =ubbcccccvl=X4mj9@XX@wlnvccccbj$@@@#@@@@@@@@%NNNN",
"NNNNN@@@@@@@@@@$Oebccvccccbbu;OOO,q+;cbcccccccbbp-.$invcccbu@O$p9OO-jbcccbx9+O9lbvcccccccni+@4&oO@5hbvvcccccbc:+@@@@@@@@@@@+NNNN",
"NNNN>+@@$@@@@@@@@sbccccccccvbzq$+@++pbccccccccccnl3.@ebvcnu@O%smb0+o;jbcnk1 $unvccccccvccvb,+@@+>pnbccvvcccvcb4O@@@@@@@@@@@+-NNN",
"NNNN$@@@@@@@@@@@$kbflvccccccvbnj>@+>cvcccccccccccbbqOo4cmr@O$dbvcb0+O-jmi& -gnccccccvvccccnp+@@evbvvvcvcvvvjzb9O@@@@@@@@@@@@@NNN",
"NNNN+@@@@@@@@@@+=cbiabccccccccvnf@Oynccvhcccccccccvnt@.3t#O#anccccb0O+:q#.,kbvcccccccvgkvcvv,o:bvvxvvvzcvxvexbwO@@@@@$@@@@@$O9NN",
"NNN>@@@@@$@@@@@@:vbpebcvcccccccbuO=xvccbplvccvcccccvni$+@@@pbvvcccvb3O@o@,lbcccccccccbplvccnio&lbvvcvzccxbh5bbp+@@@$@$@@@@@@@-NN",
"NNN%@@@@@@@@@@@O,bbg3cvccccccccb1.9bcccbepbvcccccccccMqO@Otncccvcccvc:o@=xbccccccccccvqzvccvx-Opbvvvvvvvvbu5bbf@@@@@@@@@@$@@@+NN",
"NNN+@@@@@@@@@@@+5bvc:gbcccccccvl&@hbcccne9bvccccccccvx>+Oqncvcccccccbj&O@qncccccvcccbh4vvcccn6.6bvvxvvvvxb2ebvk&@@@@@@@@@@@@@ONN",
"NN,@@@@@@@@@@@@O0bcb1qbcccccccbpO;bvccvby,bcccccccccm8OO3bvccccccccccna#+$hbvcccccccbu2ncccvbiO-zvvvzvvzbl&sbbz*@@@@@@@@@@@@@+>N",
"NN*@@@@@@@@@@@@+ebvb7$zbcbcxccb6.0bccccbp%jvcccccccbg#O;lbcccccvccccccnyOO4bcccccccvn93bcvccvz&+sbcvccvvbw$lvvc-+@@@@@$@@@@$@@@N",
"NN@@@@@@@$@@@@@+ubvbpXubclbbccc;Odbccccbj@uncccccccb1O#gbcccccclcccccccb4O@ubccccccvx=9nccccvv>.9bcvbclbc$:bvvc;+@@@@@@@@@@@@@+N",
"NN+@@@@@@@@@@@@+pbvvl$-bc:5jbbs+$jbccccvx=6nccccccni+Oebccccccbakvcccccbk-O-zbccccvbf+yncccccn9X2bbbp=0Me.0bvvv:@@@@@@@@@@@@@@+N",
"N<+@@@@@@@@@@@@@pbvvb>.ef+O$ebe.:cccccccb3#kbccccvl=X2bvccccccbuhvccccccba@oqncccccnqOfbcccccbuo;bh2OX3z%Odbcvc>+@@@@@@@@@@@@@+>",
"N:@@@@$@@@@@@@@+pbccby+%5+@+X:-O3ncccccvnq.yncccvn8X$hbcccccccbefbcccccvcb9O#gbcccvv-=xvcccccbf@$3@X+@=3X;cccvv:+@@@@@@@@@@@@@@%",
"N$@@@@@@@@@@@@@+ubcvbl%@@+2u=X++;xbvccccnio1vvccbd@Oencccccccbb8abcccccccbl-O1vbccbpO2bccccccmp@@X+5r@@+Oybccvv:+@@@@@@@@@@@@@@$",
"N$@@@@@@$@@@@@@+tncccb7+@OwMl0$O+2jbvvccbg@@gbcvb>X-xvccccccccb5pbccccccccnu+Oubccb,.0nccccbbu=O+:pbl%@@=lvvcvc;+@@@@@@@@$@@@@@@",
"N@@@@@@@@@@@@@@+wbcccbh@@+ibbnj5+X$wcbvcvv>.6ncnrO+incccccccccb1ubcccccccccb,O=xvbf@@ibccbnf,OX&tcbbb>OOqbcvccc-@@@@@@$@@@@@@@@+",
"N+@@@@@@@@@@@@@O6bvvcvv>+@fbccbbs>OX;ibbcn7X#jnk=O>bvcccccccccb:yncccccccccba@O6bn4o%lvbnj6@.#8kbbccb9++pbcccbl&@@@@@@@@@@@@@@@@",
"NO@@@@+O+@@@@@@+>bcvccneO=zvccccbbu-.O,sbna@O3m6O+pbccccccvcccx-tbccccccccccb,O@gd@O3bnxe%.@3gnbccccbi+@dbcccbh$@@@@@@@O+@@@@@@+",
">+@@@@50:@++@@@+;bvvccbt.3bvccccccnx0$.+6jn>O#8@+;cvccccccccvbl%enccvcccccccbs@O>>+Oinp;.O:pbbccccccbd@@dbvvcbp+@@@@O+=6t$@@@@@+",
">@@@@OrMvaw:+O@@$ubbbvn6.0bccccccccbnh5@.%e6O@@@+incvcccccccxvl$encccccccccccb>+@@@=a3O.%tcncccccccvbh#Opbvbbc,+@O+$5pznv-+@@@@@",
":+@@@+0nvbbzp9*+OO>ejbb:.ebvvvcccccccbba>OO%@@@@=lvccccccccccbj@qncccccccccccbt+@@@%%.#8kncccccccccccj%Oumxa7=X+@2yjbbvvz:+@@@@@",
"$@@@@+3bvvvvbnla6*O.$3u%Oubccccvcccccccbcy-O@@@O8nccccccccccxbh@0ncccccccccccbj%@@@O+4gnbcccccvccccccc;O6w-+.@>rjbbvvvvvl*@@@@@@",
"@@@@@+>vvvvvvvvbbxp3$.O@Opbcccccccccccccvbcq#@@@sbccccccccvccbg+6bcvccccccccccb5O@@;abbccccccccccccccb,++.+=9jvbvcvvvvvbh$@@@@@@",
"@@@@@@-vlkvvvvvvvvbblt=@@sbcccccccccccccccbnd#+;cbcccccccccccbd+3bcccccccccccbbp@+4bbccccccccccccccccb5O@5scbbvvvvvvxvvna+@@@@@@",
"@@@#@+%klqvcccccccccvma@#fbccccccccccccccccvx%.6nccccccccccccbdO,bccccccccccccbj$Xemvcccvccccccccvcccb0X;bbvccccccccvcxnyO@@@@@@",
"@@@@#@@dmqdncccccccccbh##hbccccccccccccccccbg#OenccccccccccccbpO:ccccccccccccccc:.5bcccccccccccccccccbq.4bcccccvccccvaxn0O@@@#@@",
"@@@@@@Oqmg3vcccccccccbj##hvccccccccccccccccbf@@fbccccccccccccbiO-lvccccccccccccb6.;cvcccccccccvvccccvnw.9ncccccccccbfybc:O#@@@@@",
"#@@@@@O4nb1enccccccccvl%#jbcccxjbccvcccccccbuo&kbcccvcccvccccnrO%lbccccccccccccnwX&lvvccccccccvljvcccbw qbcccccccvvv3fnf#@@@@@@@",
":+#@@@+-xbd%fnccccccccc;#hbcccbikccccccccccnr.;ccccccccccccccnqO$jbccccccccccccnrO$jbcccvccccvbslvcccbe encccccccvn93bnyO@@@@#@@",
",O@@@@@@anb,;xbccvccccv,+fbcccbfabcccccccccbq.>ccccccccccccccn8O#gbccccccccccccbyO$hbccccccccvzevccccnw rbcccccccnuOsbb3O@@@@@@+",
":+@@@##+qnbfo,cbccccccn4odbccccx5zvccccccccne.;cvccccvcccccccb5O@dbccccccccccccbyO$hvccccccccbrabcccvb9XubccccccmiO4bvk%@@@#@@@@",
"NO#@@@@+1vvb6 1lncccccn0.ibccccbeybccccccccntO-cvccccccccccccb2+@pbccccccccccccneO$hbcccccccvl3lvcccvb4Xinccccvbu@@fbbi@@@@@@@@O",
"N@@@@@@@@abbk&o-dnbcccbq.ybccccbj,lbcccccccbp+$hbcccccccccccvv>O+pbccccccccccccn0O&lbcccccccnqebcccccc;Opbcccbc0@.6bcb3+#@@@@#@O",
"N@@@@@@@O0ncnqOO@0knbcni.0ncccccb5qbcccccccbf@+ubccccccvcvccbx;++ubvcccccccccccb1.>ccccccccbk;jbccccbj$+fbbbvs;O+%jbbj@@@@@@@@@@",
"N#@@@@@@+=lcbk&@+X%9dcMdX>vvccccbf$hbccccccbk%O6ncccccccccccvl=@+tbvcccvccccccbj%o9bcccccccb94bvcvccbf+$znju,OO@O8ncbeO@@@@@@@@@",
"N$@@@@@@#Oincn4O#:@ +:qq@@gbccccbb,3bcccccccb2.>cvccccccccccbj%@+enccccccvccccba@Oubccccccbs@fbcccccb9O*e5%.X==+#jbcc;+@@@@#@@@@",
"N;@@@#@@@+;ccnuO$jfq-o.O#Oqncccccbf@pbvcccccnuO@sbccccccccccbj#@+ebccccccccccvb3O&jbcccccbc-2bbcccvvl&@@O.@1yx6.,bcba@@@@@@@@@@%",
"N1+@@@@@@#Oincl%#hnnxa3#O@-xbcccccb3#jbcccccbj%X3bccccvcccccvh#@Oqbccccccccccbf@O0nccccccb9+fbccccvbtO@+=qgbnn5.wncb3O@@@@@#@@O;",
"NN+@@$@@@@+>cvb2oabccnnj5OOrbcccccbg+,bvcccccb8O@dbvccccccccbg#@+6bvcccccccccb3O$hbcccccbpX6bcccccvc-+$uzbbccb3Osbbd#@@@@@@@@@ON",
"NN@@@@@@@@#+innq qnccccbz&O#jbcccccb9 qbcccccbj$O;xbccccccccbd@@+5bvccccccccnp@O9bcccccbj#$jbccvccn0OO0mbcccvc;@hbn5O@@@@#@@@@@N",
"NN%@@@@#@@@@;cbd+,bcccccneOO1bcccccvz-orbcccccne+O0bvvccccccbd@@+2bxcccccccbj&O=lbcccvbk;.rbccccvnp@O&kvccvcbh@:cbg#@@@@@@@@@@@N",
"NN2+@@@@@@@@Ownc-$lvcccccb,OO6bbccccnpO@unccccvc;+@rncccccccba+@+>bvcccccccc,+O6bccccbl;.2bccccvnf$++ybcccccbw.wbn6O#@@@@@@@#@;N",
"NNNO@@@@@@#@@$hm8Oybcccccbh%+O5bbccccn0O@ybccccn3O@@pnccccccbu+@+;xccccccbb6O@Owbcccbj>X%jbcccvbs%+O5bvcccvcb2Ofmd@@@@@@@#@@@ONN",
"NNN$@@@@@@@@@O3ndO2bccccccbs@@O>jnvccvc>o@qnbcvx;+++@sncccccbr+@@*lbcccccb6O@@O6nccnj=O+ubccvbby@+O:zbccccvbh@-vb>O@@@@@@@@@@+NN",
"NNN<+@@@@@@@@@+yb;@sbccccccnp#++&ecbbcbj=O@5zbbf@#3@+$pbccccnqO@@%jccccbc6O+$=O>cbbp%+Owbccbbj3+@O>jbccccccbe 0MyO@@@@@#@@@@@=NN",
"NNNNO@@@@@@@@@@$ju.3ncccccccbd-++O-ekbbnf&OO-aMuO=cy@+@uncccn6O@@$jbccbc4O+$siO%zc6++O6bbbng8#O@O3xbccccccbz=+fl%@@@@@@@@@@@O5NN",
"NNNN#@@@@@@@@@@O1k$@dbccccccvbl3@O@O&9sxMh&OO@04X3bnu@+@tbvxb4+@@#hbcbx4OO%dmj#@q;O@O5bnxp6#O@O$ebbcccvvccbrX>v,O@@#@@@@@@@@@NNN",
"NNNN>+@@#@@@@@@@+05.3bckccccvcbbp>OO+O@-5ip-@@O@+ubcna$O@enbb2+@@@fbbx,OO;jbcc;@+@@@5ju5-+O+O$8jncccccbjlbl%Or0O@@@@#@@@@@@@*NNN",
"NNNNN+@@@@@@@$@@@#,@Oanjanccccccbcu1@@@+XX=-@@@@@gbccbf%O@qbb,+@@@dnk>OO,lbccb5O@@@@,%..@@+$qjbbcccccbjuvn0O@:@@$@@@@@@@@@@ONNNN",
"NNNNN-+@@@@@@@@@@@@@@-lbqanccccccbnbf-+&3-@OO@@@&lvcvvbj;O+6c>+@@@gk;O+4cbcccbu+@@+OO$>2@+=hnbccccccbc9fbf@@@@@@@@@@@$@@@@@$NNNN",
"NNNNNNO@@@@@@@@@#@@@@X8mj:gncccccccvnq.>bcgr3-@.3bcccccbk;XO;=@@@@6;OO0bbccccbg++%>6plbs@@dnccccccccb69nv:+@@@@@@@@@@@@@@@+3NNNN",
"NNNNNN$@@@#@@@@@@@@@@@@pMy=gncccccccnuO-zvbnbcgeabccccccbl,O@@@@@@@+@rbccccccclqalvbbbnr.;bvccccccbb6;cm0+@@@@@@@@@@@@@@@@@NNNNN",
"NNNNNN7O@@@@@@@@@@#@@@@&km8#fbccccccbf@$jbccccbbbccccccccbc1+@@@@@@@unbccccccccnbvvcccn0.,bccccccbc6#jmp@@@@@@@@@@@@@@@@@+:NNNNN",
"NNNNNNN$@$@@@@@$@@@@@@@O1bb6@ubbccccvl%@fbccccccccccccccccbc,+@@@@@pnccccccccccccvccccb5.4bcccccbk:#gMg=+@@@@@@@@@@@@@@@@@NNNNNN",
"NNNNNNN9O@@@@@@@@@@@@@@@Oqnb0O5cbccccc;Orbccccccvccccccccccba+@@@O>bccccccccccccvccccvb,.qbcccbnp#;jmx;@@@@@@@@@@$@@@@@@O1NNNNNN",
"NNNNNNNN@@@@@@@@@@@@@@@@@Oymnu#=sbbccb,.6ncccxcbbbbccccccccbj$@@@O5bcccccccccbnbbvcccvl%Oibcbbk6+9xnc2O@@@@$@@@@@@@@@@@@@NNNNNNN",
"NNNNNNNNNO@@@@@@@$@@@$@@@@@innk2X4hmvb0X,bccbr-,6rjbvccccccvl-+@@Oencccccccbbaq3>6vvcbs+@hbbvt$*anbv4o@@$@@@@@@@@@@@@@@O3NNNNNNN",
"NNNNNNNNN-@@@@@@@@@@@@@@@@@@abbbt$+0kMaO$jbcbsO+OO$ebccccccvv;@@@Opbccccccbl4+OOO;bvcneX=vbp:O5znvv6O#@@@@@@@@$@@@@@@@@$NNNNNNNN",
"NNNNNNNNNN+@@@@@@@@@@@@@@@@@$snvnk5.$7p%Oebcbx-+@@@Oqbccccccb,+@@@fbcccccbl>O@@@O6bvcb2.3u>.=sbvvv4O@@#@@@@@@@@@@@@@@@ONNNNNNNNN",
"NNNNNNNNNN3+@@@@@@@@@@@@@@@@+$anvbbp=.@@+2bccneX@@@@@dbcccccb6O@@#gbcccccb5o@@@@@dbcbg@@$O@0zbvbx3O@@@@@@@@@@@@@$@@@@+;NNNNNNNNN",
"NNNNNNNNNNN=@@@@@@@@@@@@@@@@@+@ibvvbz0@O@@gbcbc5X@@@O>cvccccneO@@$jbccccbs@@@@O#rbccnqO@O>gnvvnh;O@@@@#@@@@@@@@@@@@@@$NNNNNNNNNN",
"NNNNNNNNNNNNO@@@@@@@@@@@@@@@@@@+ebbvvbh:++0bccbb8@O@@Ounccccbp+@+;ccccccc,O@O@,gbccbl%@@wbbcvma%O@#@@@@@@@@@@@@#@@@@ONNNNNNNNNNN",
"NNNNNNNNNNNN5O@@@@@@@@@@@@@@@@@@O3lnvvnk-+$hbcccbs3@OO;cbcccbf@@O1bccccbg@OO>ibbcccbqO+ynccbx0@@#@@@#@@@@$@@@#@@@@@O<NNNNNNNNNNN",
"NNNNNNNNNNNNN:O@@$@@@@$@@@@@@@@@@O*pbbvnp+O6bccccbbf6=Opbcccbh#@O9bccccbq.;tbbccccbg#O>bbbnf>O@@@@@@@@@@@@@@@@@@@@@$NNNNNNNNNNNN",
"NNNNNNNNNNNNNN$@@@@@@@@@@@@@@@$@@@+@5hbnb<O@anvvcccbbzuuvcccvk&@Oenccccc6rcncccccbc;OOumnh5@+@@@@@@#@@@#@@@@#@@@@@@NNNNNNNNNNNNN",
"NNNNNNNNNNNNNNN+@@@@@@@@@$@@@@@@@@@@O@5dna++-zvvcccccbbbcccccc;+Ounccccccbcccccccb8O@>bj5$+@@@@@@@@@@@@@@@@@@@@@@ONNNNNNNNNNNNNN",
"NNNNNNNNNNNNNNNN+@@@@@@@@@@@@@@@@$@@@@O@:5%@+2vvcccccccccccccb3O+pbcccccbcccccccnu@@@13#+@@@@@@@@@@@#@@@@@@#@@@@O5NNNNNNNNNNNNNN",
"NNNNNNNNNNNNNNNN5O@@@$@@@@@@@@@@@@@@@@@@++@@@O6bcccccvcccccccn0O@fbccccccccccccbg#+@@@O@@@@@@@@@#@@@@@@@@@@@@@@O2NNNNNNNNNNNNNNN",
"NNNNNNNNNNNNNNNNN5+@@@@@$@@@@@@@@@@@@@@@@@@@@@+wnccccccccccccnyO%jbcccccccccccbc;+@@@@@@@@@@@@@@@@@@@@@@@@#@@@+>NNNNNNNNNNNNNNNN",
"NNNNNNNNNNNNNNNNNN5O@@@@@@@@@@$@@@@@@@@@@@@@@@@@pbcccccccccccbaO;cccccccccccccv3O@@@@@@@@@@$$@@@@@@@@#@##@@@@O,NNNNNNNNNNNNNNNNN",
"NNNNNNNNNNNNNNNNNNN5+@@@@@@@@@@@@@@@@@@@@@@@@@@@%jbccccccccccbfO3bcccccccccccneO#@@@@@@@@@@@@@@@@@#@@@@@@@@@O>NNNNNNNNNNNNNNNNNN",
"NNNNNNNNNNNNNNNNNNNN5O@@@@@@@@@@@$@@@@$@@@@@@@@@O>vvcccccccccbj@0nccccccccccbg#@@@@@#@@@@@@@@@@@@@@@@@@@@@@O>NNNNNNNNNNNNNNNNNNN",
"NNNNNNNNNNNNNNNNNNNNN5@@@@@@@@@@@@@@@@@@@@@@@@@@@Xebcccccccccvl$enccccccccvvv>O@@$@@@@$@@@@@@@@@@@@@@@@@@@O<NNNNNNNNNNNNNNNNNNNN",
"NNNNNNNNNNNNNNNNNNNNNNN@+@@@@@@@@@@@@@@@@@@@@@@@@@$hbcvccccccvb;ybccccccccvbeO@@@@@@@@@@@@@@$@@@@@@@@@@@@O5NNNNNNNNNNNNNNNNNNNNN",
"NNNNNNNNNNNNNNNNNNNNNNNN$+@@@@@@@@@@@$@@@@@$@@@@@@X3bcccccccccb3ibccccccccvl%@@@@@@@@@@@@@@@@@@@@$@@@@@@@NNNNNNNNNNNNNNNNNNNNNNN",
"NNNNNNNNNNNNNNNNNNNNNNNNN:O@@@@@@$@@@@@@@@@@@@@@@@@@abccccccvcbwfbccvccccvb9O@@@@@@@@@@@@@@@@@@@@@@@@@O%NNNNNNNNNNNNNNNNNNNNNNNN",
"NNNNNNNNNNNNNNNNNNNNNNNNNN2@@@@@@@@@@@@@@@@@@@@$@@@+2bccvcccccbfjbccccccvbh@@@@@@@@@@@$@@$@@@@@@@@@@@O,NNNNNNNNNNNNNNNNNNNNNNNNN",
"NNNNNNNNNNNNNNNNNNNNNNNNNNNN%+@@@@@@@@@@@@@$@@@@@@@@@dbvcccccccvcccccccccb6O@@@@$@@@@@@@@@@@@@@@@@@@$NNNNNNNNNNNNNNNNNNNNNNNNNNN",
"NNNNNNNNNNNNNNNNNNNNNNNNNNNNN<++@@$@@@@@@@@@@@@@@@@@O6bcccccccccccccccccvj$@@@@@@@@@@@@@@@@@$@@@@@O-NNNNNNNNNNNNNNNNNNNNNNNNNNNN",
"NNNNNNNNNNNNNNNNNNNNNNNNNNNNNNN*O@@@@@@@@@@@@@@@@@@@@$jbccccccccccccvcccbe+@@@@@@@@@@@@@@@@@@@@@O%NNNNNNNNNNNNNNNNNNNNNNNNNNNNNN",
"NNNNNNNNNNNNNNNNNNNNNNNNNNNNNNNN3$+@@@@@@$@@@@@@@@@@@Oybcccccccvccccccvvc-@@@@@@$@@@@@@@@@@@@@+@2NNNNNNNNNNNNNNNNNNNNNNNNNNNNNNN",
"NNNNNNNNNNNNNNNNNNNNNNNNNNNNNNNNNN3@+@@@@@@@@@@@@@@@@+3bvvcvccccccccccvbf@@@@@@@@@@@@@@@@@@@+@:NNNNNNNNNNNNNNNNNNNNNNNNNNNNNNNNN",
"NNNNNNNNNNNNNNNNNNNNNNNNNNNNNNNNNNNN>@+@@@@@@@@@@@@@@@@hbvccccccvccccccn7O@@@@@@@@@@@@@@@@+@:NNNNNNNNNNNNNNNNNNNNNNNNNNNNNNNNNNN",
"NNNNNNNNNNNNNNNNNNNNNNNNNNNNNNNNNNNNNN3%+@@@@@@@@$@@@@+>lbcccccccccvxbbp@@@@@@@@@@@@@@@@+$,NNNNNNNNNNNNNNNNNNNNNNNNNNNNNNNNNNNNN",
"NNNNNNNNNNNNNNNNNNNNNNNNNNNNNNNNNNNNNNNNN-@+@@@@@@@@@@@+;dbbcccccccvml7@@@@@@@@$@@@@++@%NNNNNNNNNNNNNNNNNNNNNNNNNNNNNNNNNNNNNNNN",
"NNNNNNNNNNNNNNNNNNNNNNNNNNNNNNNNNNNNNNNNNNN5=@O@@@@@@@@@+@5gbbvvcvbxe%O@@@@@@@@@@@++=3NNNNNNNNNNNNNNNNNNNNNNNNNNNNNNNNNNNNNNNNNN",
"NNNNNNNNNNNNNNNNNNNNNNNNNNNNNNNNNNNNNNNNNNNNNNN;@@+@@@@@@@O#6jnbbbu:O@@@@@@@@@+@@-NNNNNNNNNNNNNNNNNNNNNNNNNNNNNNNNNNNNNNNNNNNNNN",
"NNNNNNNNNNNNNNNNNNNNNNNNNNNNNNNNNNNNNNNNNNNNNNNNNNN-%@@@+O@+O$0gp2+O+@@OO@@@$-NNNNNNNNNNNNNNNNNNNNNNNNNNNNNNNNNNNNNNNNNNNNNNNNNN"
};
