/* XPM */
static char *result[] = {
/* columns rows colors chars-per-pixel */
"16 16 162 2 ",
"   c #207CC3",
".  c #237DC4",
"X  c #2880C5",
"o  c #2881C5",
"O  c #2982C6",
"+  c #2A82C6",
"@  c #2B83C6",
"#  c #2C83C7",
"$  c #2D84C6",
"%  c #2D84C7",
"&  c #2F85C7",
"*  c #3186C7",
"=  c #3186C8",
"-  c #3287C8",
";  c #3488C8",
":  c #3589C9",
">  c #3688C9",
",  c #388ACA",
"<  c #398BCA",
"1  c #3A8BCA",
"2  c #3C8CCA",
"3  c #3E8DCB",
"4  c #3F8ECC",
"5  c #408FCC",
"6  c #418FCC",
"7  c #4290CC",
"8  c #4290CD",
"9  c #4491CD",
"0  c #4893CE",
"q  c #4A94CE",
"w  c #4A95CE",
"e  c #4A94CF",
"r  c #4A95CF",
"t  c #4B95CF",
"y  c #4C96CF",
"u  c #4D96CF",
"i  c #4F97CF",
"p  c #539AD1",
"a  c #589DD2",
"s  c #5A9ED3",
"d  c #5EA0D4",
"f  c #63A3D5",
"g  c #67A6D6",
"h  c #68A6D6",
"j  c #6AA7D7",
"k  c #6AA8D7",
"l  c #6BA8D7",
"z  c #6BA8D8",
"x  c #6CA9D8",
"c  c #6DA9D8",
"v  c #71ABD9",
"b  c #73ACD9",
"n  c #72ADD9",
"m  c #74ADDA",
"M  c #75AEDA",
"N  c #76AEDA",
"B  c #76AFDA",
"V  c #78AFDB",
"C  c #78B0DB",
"Z  c #79B0DB",
"A  c #7AB0DC",
"S  c #7CB2DC",
"D  c #7DB2DC",
"F  c #82B5DD",
"G  c #83B6DE",
"H  c #86B7DF",
"J  c #86B8DE",
"K  c #87B8DF",
"L  c #88B8DF",
"P  c #8AB9E0",
"I  c #8DBBE1",
"U  c #90BDE2",
"Y  c #94BFE3",
"T  c #95C0E3",
"R  c #98C1E4",
"E  c #9AC3E4",
"W  c #9BC4E5",
"Q  c #9CC4E5",
"!  c #9CC5E5",
"~  c #9DC5E5",
"^  c #9EC6E5",
"/  c #9EC5E6",
"(  c #9FC6E6",
")  c #A0C6E6",
"_  c #A0C7E6",
"`  c #A1C7E6",
"'  c #A2C7E6",
"]  c #A2C8E6",
"[  c #A2C8E7",
"{  c #A3C9E7",
"}  c #A4C9E7",
"|  c #A5C9E7",
" . c #A5CAE7",
".. c #A7CBE8",
"X. c #A9CCE9",
"o. c #AACCE9",
"O. c #ABCDE9",
"+. c #ACCEE9",
"@. c #ADCEEA",
"#. c #AECFEA",
"$. c #AFCFEA",
"%. c #B0D0EB",
"&. c #B1D1EB",
"*. c #B2D1EB",
"=. c #B3D2EB",
"-. c #B6D3EC",
";. c #B7D4EC",
":. c #B7D4ED",
">. c #B8D4EC",
",. c #B9D5ED",
"<. c #BAD5ED",
"1. c #BAD6ED",
"2. c #BBD6ED",
"3. c #BDD7EE",
"4. c #BED8EE",
"5. c #BFD8EE",
"6. c #C0D9EF",
"7. c #C1DAEF",
"8. c #C2DAEF",
"9. c #C2DBEF",
"0. c #C3DBF0",
"q. c #C4DBF0",
"w. c #C5DCF0",
"e. c #C6DDF1",
"r. c #C7DEF1",
"t. c #C8DEF1",
"y. c #CADFF1",
"u. c #CBDFF1",
"i. c #C9DFF2",
"p. c #CADFF2",
"a. c #CBE0F2",
"s. c #CCE0F2",
"d. c #CDE0F2",
"f. c #CDE1F2",
"g. c #CEE1F2",
"h. c #CFE2F3",
"j. c #D0E2F3",
"k. c #D1E4F4",
"l. c #D3E4F4",
"z. c #D3E5F4",
"x. c #D4E5F4",
"c. c #D5E5F4",
"v. c #D5E5F5",
"b. c #D6E6F5",
"n. c #D6E7F5",
"m. c #D8E7F5",
"M. c #D9E8F6",
"N. c #DAE8F6",
"B. c #DCEAF6",
"V. c #DEEBF7",
"C. c #E0ECF7",
"Z. c #E0ECF8",
"A. c #E3EEF8",
"S. c #E4EEF9",
"D. c #E5EFF9",
"F. c #E7F0FA",
"G. c #ECF2FB",
"H. c #EDF3FB",
"J. c #EEF4FB",
"K. c #EEF5FC",
"L. c #F1F6FC",
"P. c None",
/* pixels */
"P.P.P.P.P.g t [ U 9 l P.P.P.P.P.",
"P.P.P.N * & { S.F.K O - M P.P.P.",
"P.P.g > S V m.#.>.h.j N % x P.P.",
"P.J   A G.p./ b.k.E b.V.d . G P.",
"P.1 N } o.` f.;.t.5.] @.! c : P.",
"M , u.y.%.F.O.#.{ <.D...N.&.$ C ",
"y 5 #.T 2.4.-.Z.M.=.6.-.R  .= u ",
"a _ ) q.f.D g.l.C.;.H n.;.` Q q ",
"i i.w.s.H.1.A.9.j.v.4.K.7.a.1.8 ",
"t G ' -.x.5.c.,.p.t.0.l.+.| m 0 ",
"B 7 ;.6.^ P ) W ..Y I ` e.X.2 b ",
"P.; e 8.&.` l.Z Y d.~ 3.*.4 : P.",
"P.J o s ~ O.$.o.:.X.O.T r + F P.",
"P.P.c @ 6 f B.r.z.a.p 3 # k P.P.",
"P.P.P.v , X L L.J.z O < n P.P.P.",
"P.P.P.P.P.g p *.( w h P.P.P.P.P."
};
