/* XPM */
static char *result[] = {
/* columns rows colors chars-per-pixel */
"48 48 52 1 ",
"  c #2C83C6",
". c #3186C7",
"X c #3387C8",
"o c #3689C9",
"O c #3C8CCB",
"+ c #408FCC",
"@ c #4491CD",
"# c #4B95CF",
"$ c #4F97D0",
"% c #4F98D0",
"& c #539AD1",
"* c #5A9ED3",
"= c #5EA0D4",
"- c #63A3D5",
"; c #69A7D7",
": c #6CA8D7",
"> c #6AA7D8",
", c #6DA9D8",
"< c #74ADDA",
"1 c #78AFDB",
"2 c #7CB1DC",
"3 c #83B6DE",
"4 c #87B8DF",
"5 c #88B8DF",
"6 c #8CBBE0",
"7 c #92BEE2",
"8 c #96C0E3",
"9 c #9CC4E5",
"0 c #A1C7E6",
"q c #A3C8E7",
"w c #A6CAE8",
"e c #ACCDE9",
"r c #B0CFEA",
"t c #B3D2EB",
"y c #BBD6ED",
"u c #BED8EE",
"i c #C1DAEF",
"p c #C5DCF0",
"a c #C9DFF1",
"s c #CDE1F2",
"d c #D4E5F4",
"f c #D8E7F6",
"g c #DCE9F6",
"h c #DFECF8",
"j c #E0ECF7",
"k c #E4EFF9",
"l c #E7F0F9",
"z c #ECF3FB",
"x c #F1F6FC",
"c c #F5F9FD",
"v c #F9FBFE",
"b c None",
/* pixels */
"bbbbbbbbbbbbbbbbbbbb-$#6-o$->bbbbbbbbbbbbbbbbbbb",
"bbbbbbbbbbbbbbbb&#ooX+rxk2Xooo#=bbbbbbbbbbbbbbbb",
"bbbbbbbbbbbbb<#ooOOo$axkzz6XOOooo@1bbbbbbbbbbbbb",
"bbbbbbbbbbbb#XoO+Oo$sxlahkz6oOOOOOX@bbbbbbbbbbbb",
"bbbbbbbbbb*oOOOOOo+pxkztfkkz1XOOOO@Oo&bbbbbbbbbb",
"bbbbbbbbb#oOOO+O+oexkkxefzkzk&oOOOOOOo@bbbbbbbbb",
"bbbbbbbbOOOOoooOo1zlkxa&8zlkzuOOOooOOOOobbbbbbbb",
"bbbbbbbooOOo;q*X+fzkxe*e2<kzlc2 O29OOOOOobbbbbbb",
"bbbbbboOOOO#dck0%8zxq*sxz5>kxa*-uzx3XOOOOobbbbbb",
"bbbbb#o+OOX0hhlxd;19=fxajx7;9*0zzlpd%oOOOo+bbbbb",
"bbbb-XOOOo&lsdlkzx1@fzzwflz4osxlllyx9.OOOOo&bbbb",
"bbbbXOOOOX8cspxzzf*izjz7dlzz<8zzzgezf$oOO+OXbbbb",
"bbb#oOOOo@dzd9tej:8xkkz3pzkzf*usqr9zz2Xo+OOO+bbb",
"bb4XOo-u-Ouxl*-6*&zzklz-yzkkc9O14Otcl<O8woOO.3bb",
"bb#oOX3clq&2a=scs21fzxwo:kzze;wlx18r&<scsOOOo#bb",
"bboO+o9zlzf3O7zlzzw-st&p2;h61fxlzd#*yzzlf&OO+Xbb",
"b=OOOotpllzl=dhfkkxi&#pxz1+5zzkjdx1ecklsd-o+Oo=b",
"b@OOOOprdzzu2zftzklh#txzzk*7xlzsuxu1zzzwg,XOOO+b",
"boOOO@dtqsk69zk6jkx26xlfjzs&szzeuzg;jia4c1o+OOob",
"2oOOo@dg-%;#pxz6ict-kkzihkx0,zz3szx;:%&0c1XO+Oo<",
";ooOOOac2&s2;yxw5x-yzlztfklz;ts;xg4-tq+fx1XOoOo*",
"&o&%X yvy1xzu,2y*2,zklz0dzkzy*<5e-7kcu:cx* +-+O%",
"@Xqke,;w68xlzze>O.yzkkz6dkkkz- *3fzzld;t1=7aj%o+",
"OX4zxzs9%qzlllzl4*llklz3azkkx9#azzkkkh&1ukxxd@O+",
"Oo<pfzlv7qzllklze2xkkkz1izklzu;zkkkkkh;hzzlfyOOO",
"#o&pqzlz9qzfhllx87zkkjz;yzkkld-fkkzdkh1flzpy8XO@",
"$oop98zcr9xduzkz86zlkzk*rzllkd*hkzfilg2kxs<f-oO%",
";Xo3l$>ur6zzedlzw2xkkkj#wzlkzy-lkzefza<d8OwsOOo=",
"1oo#h516*&kzs8zzd*fzkzh#0zkkx34xzu9zx9+18-l4oOo<",
"boOX7y7vh-8cz7qzz23xkldO7xkzs&dzf1fxh%ezf3f@OOob",
"b@Oo#u3kzp#tck-tvsoexzdo5xzk&1vj;evj=1xxe08oOOOb",
"b-oO.<6yzze#3fd*wu*&evao3ck;#3f=7xt%>jlz3e@OOo=b",
"bbXO+o-2kkxa;#12o+ws%eaX3k-2h*o&8*%9zzjp*-o+OXbb",
"bb#OOOOOeikzzt&7,#icd*:O--5xz1&61-kxxpa,XoOOO+bb",
"bb3.+O+o&y9hxj<jzklzzf*XO0xllkkv79czte8XOO++X2bb",
"bbb#oOOOX:i7ux<pkifzkce -zkzkifx2uj8rrOO+OOo+bbb",
"bbbb.O+OOX1j77;wz#owzzi.<zzf; 0z-56duOo+OOOX6bbb",
"bbbb=oOOO+o<la*;crOoszso3xz1 <ky+wzwOoOOOOo&bbbb",
"bbbbb+o+O+OX*pl-tvd39zh+8xf<tzz-rj1XO+O++OObbbbb",
"bbbbbbooOO+OXo1:%hzzkzk&exjkzx5#3#XOOOOOOXbbbbbb",
"bbbbbbboOO+OOOooX>kzkkz<uzkkztoOoO+OOOOOXbbbbbbb",
"bbbbbbbbooOOOOO+OX6zkkz6azkzd#oOOOOO+Ooobbbbbbbb",
"bbbbbbbbb+o+OO+OOOOpzkzedzkz1XOOOOOOOoObbbbbbbbb",
"bbbbbbbbbb&XO+OOOOX1zkkhkkzpOo+OOOOOo&bbbbbbbbbb",
"bbbbbbbbbbbb+XOOOOO+azkkkkz2oOOO+OoO3bbbbbbbbbbb",
"bbbbbbbbbbbbb<#ooOOX7czkkxd#OOOoo@>bbbbbbbbbbbbb",
"bbbbbbbbbbbbbbbb*+oXo6hxzt$Xoo+&bbbbbbbbbbbbbbbb",
"bbbbbbbbbbbbbbbbbbb,*+&6<O#*,bbbbbbbbbbbbbbbbbbb"
};
