/* XPM */
static char *result[] = {
/* columns rows colors chars-per-pixel */
"32 32 50 1 ",
"  c #2E84C7",
". c #3085C7",
"X c #3387C8",
"o c #3589C9",
"O c #3C8CCB",
"+ c #418FCC",
"@ c #4591CD",
"# c #4994CE",
"$ c #4F97D0",
"% c #4F98D0",
"& c #549AD1",
"* c #5A9ED3",
"= c #5EA0D4",
"- c #63A3D5",
"; c #69A6D7",
": c #6BA8D7",
"> c #6EA9D8",
", c #73ACDA",
"< c #78AFDB",
"1 c #7CB2DC",
"2 c #83B6DE",
"3 c #87B8DF",
"4 c #88B9DF",
"5 c #8CBBE0",
"6 c #92BEE2",
"7 c #96C1E3",
"8 c #9BC4E5",
"9 c #A1C7E6",
"0 c #A4C9E7",
"q c #A7CAE8",
"w c #ADCEE9",
"e c #B0CFEA",
"r c #B4D2EB",
"t c #BAD6ED",
"y c #BED8EE",
"u c #C2DAEF",
"i c #C5DCF0",
"p c #CADFF1",
"a c #CDE1F2",
"s c #D3E4F4",
"d c #D8E7F5",
"f c #DBE9F6",
"g c #E0ECF7",
"h c #E3EEF8",
"j c #E7F0F9",
"k c #ECF3FB",
"l c #F1F6FC",
"z c #F6F9FD",
"x c #F9FBFE",
"c c None",
/* pixels */
"cccccccccccc;&@81O&=cccccccccccc",
"ccccccccc>#oXOrlk5.oO@:ccccccccc",
"ccccccc1@XOOOyldfk5XOOoO1ccccccc",
"cccccc*XoOOowkkpfkk>oOOoX&cccccc",
"ccccc#oO#O 1lka16hld$ $OOo#ccccc",
"cccc$XOOia>5lu1dr5gd-1f6XOX$cccc",
"ccc-oOo5gkkw11ffht,2ilfs*oOo*ccc",
"cc5.Oo@dagzf>dlrdlq5zlsf9ooOX5cc",
"cc@o&O;xy201ukkqakk7785jdO&$oOcc",
"c1X.8d1705a1wkk-7zg55i<r17g;oX<c",
"c#OOrkkq-fkkq82e577ikze-plk1XO#c",
"coO+raxs8gakz,8zj;qzgpf7lki6XOoc",
",XO@p8q5ijekt5kfjd1jsex888rqXOo:",
"*XX+f8;27j8a5fkadle8rya15&f8 oO&",
"@*,+er0zr51&0kkysjk1=56ak5f1#1@@",
"X1lsq,rkkjq&djkwajl0*ikkk22rgg@O",
"o*ikzwrkjkg5jjl8akja7kjgk6szgeOO",
"@+wqkytgsks6kkk5tjja5kjaj8fsw7X@",
"* 96158zrgg5gjk1rkkt5zapk18;t-X&",
";X&eqr>gaqz7rkk>ekk5af8lr<i8eoo;",
"coo2wxe<fqws&iz;qx8:j5at:fjq:ooc",
"c@o@>ale,7=&75i=9951%15<skw-Oo@c",
"c1XOX<ikg,82ff1@=8le555zdy&oOo>c",
"ccOOOO5rf8sffkdO<lksjetpr:oOOOcc",
"cc5XOO+qt:r7@ak*8z8Op36i1XOOX5cc",
"ccc=XOOO8y5g56z,wh1yp2u;oOOo*ccc",
"cccc#oOOo-%8xjk5tkjk-*#oOOO@cccc",
"ccccc#oOOooOrkkeajk3XOOOOo@ccccc",
"cccccc&XOOOO*jksfkiOOOOOX&cccccc",
"ccccccc1OoOOXwkjjk,XOOoO1ccccccc",
"ccccccccc;@o -fkltOoo@;ccccccccc",
"cccccccccccc-#=q5#%=cccccccccccc"
};
