<?xml version="1.0" encoding="UTF-8" standalone="no"?>
<!-- Generator: Adobe Illustrator 24.1.3, SVG Export Plug-In . SVG Version: 6.00 Build 0)  -->

<svg
   version="1.1"
   id="Layer_1"
   x="0px"
   y="0px"
   viewBox="0 0 24 24"
   style="enable-background:new 0 0 24 24;"
   xml:space="preserve"
   sodipodi:docname="bg-multi-number-dark.svg"
   inkscape:version="1.1 (c68e22c387, 2021-05-23)"
   xmlns:inkscape="http://www.inkscape.org/namespaces/inkscape"
   xmlns:sodipodi="http://sodipodi.sourceforge.net/DTD/sodipodi-0.dtd"
   xmlns="http://www.w3.org/2000/svg"
   xmlns:svg="http://www.w3.org/2000/svg"><defs
   id="defs12" /><sodipodi:namedview
   id="namedview10"
   pagecolor="#ffffff"
   bordercolor="#666666"
   borderopacity="1.0"
   inkscape:pageshadow="2"
   inkscape:pageopacity="0.0"
   inkscape:pagecheckerboard="0"
   showgrid="false"
   inkscape:zoom="33.833333"
   inkscape:cx="11.985222"
   inkscape:cy="12.014778"
   inkscape:window-width="1920"
   inkscape:window-height="1001"
   inkscape:window-x="-9"
   inkscape:window-y="-9"
   inkscape:window-maximized="1"
   inkscape:current-layer="Top-BarTheme-Copy" />
<style
   type="text/css"
   id="style2">
	.st0{fill:#0b0f16;}
	.st1{fill:#0b0f16;stroke:#28B8CE;stroke-width:1.5;}
</style>
<desc
   id="desc4">Created with Sketch.</desc>
<g
   id="Top-BarTheme-Copy">
	<circle
   id="Oval"
   class="st0"
   cx="12"
   cy="12"
   r="12" />
	
<path
   style="font-variation-settings:normal;opacity:1;vector-effect:none;fill:#98d6fd;fill-opacity:1;stroke:none;stroke-width:0.000873597;stroke-linecap:butt;stroke-linejoin:miter;stroke-miterlimit:4;stroke-dasharray:none;stroke-dashoffset:0;stroke-opacity:1;-inkscape-stroke:none;stop-color:#000000;stop-opacity:1"
   d="M 11.187192,21.70527 C 9.5656475,21.5353 8.2757905,21.120361 6.9823886,20.352612 4.6836863,18.988126 3.0005812,16.618932 2.4713175,14.002679 2.3102869,13.206673 2.2915125,12.994884 2.2924765,11.985222 2.2934492,10.966383 2.3260972,10.630881 2.4995616,9.857143 3.0038153,7.6079178 4.3044821,5.5910879 6.1378561,4.2155588 7.2688629,3.366996 8.6366902,2.7485635 9.9964481,2.4709828 10.775501,2.3119472 11.00529,2.2913949 12,2.2917855 c 0.99404,3.903e-4 1.261434,0.023954 2.019261,0.1779428 3.78863,0.7698417 6.715787,3.677768 7.495772,7.4465277 0.167093,0.807361 0.194377,1.100757 0.193775,2.083744 -5.91e-4,0.963941 -0.02502,1.23715 -0.178304,1.994067 -0.397397,1.962338 -1.462382,3.837043 -2.950942,5.194575 -1.469406,1.340065 -3.261178,2.17517 -5.286327,2.46384 -0.319956,0.04561 -1.816648,0.08312 -2.106043,0.05279 z m 1.300493,-1.459154 c 2.069922,-0.129283 3.931936,-0.959828 5.365269,-2.393162 2.013603,-2.013602 2.83256,-4.909142 2.197529,-7.769674 C 19.597206,8.041466 18.365774,6.2503626 16.621313,5.0955891 14.408501,3.630784 11.446107,3.3258009 8.955665,4.3063986 4.9805324,5.8715852 2.8695913,10.210754 4.0697224,14.349754 c 0.9591161,3.307789 3.9206688,5.674031 7.3773916,5.894438 0.531915,0.03392 0.528454,0.03391 1.040571,0.0019 z"
   id="path980" /></g>
</svg>
