<?xml version="1.0" encoding="UTF-8" standalone="no"?>
<!-- Generator: Adobe Illustrator 24.1.3, SVG Export Plug-In . SVG Version: 6.00 Build 0)  -->

<svg
   version="1.1"
   id="ic_zterra_pgo"
   x="0px"
   y="0px"
   viewBox="0 0 24 24"
   style="enable-background:new 0 0 24 24;"
   xml:space="preserve"
   sodipodi:docname="ic-coin-zpgo.svg"
   inkscape:version="1.1 (c68e22c387, 2021-05-23)"
   xmlns:inkscape="http://www.inkscape.org/namespaces/inkscape"
   xmlns:sodipodi="http://sodipodi.sourceforge.net/DTD/sodipodi-0.dtd"
   xmlns="http://www.w3.org/2000/svg"
   xmlns:svg="http://www.w3.org/2000/svg"><defs
   id="defs17" /><sodipodi:namedview
   id="namedview15"
   pagecolor="#ffffff"
   bordercolor="#666666"
   borderopacity="1.0"
   inkscape:pageshadow="2"
   inkscape:pageopacity="0.0"
   inkscape:pagecheckerboard="0"
   showgrid="false"
   inkscape:zoom="33.833333"
   inkscape:cx="11.985222"
   inkscape:cy="12.014778"
   inkscape:window-width="1920"
   inkscape:window-height="1001"
   inkscape:window-x="-9"
   inkscape:window-y="-9"
   inkscape:window-maximized="1"
   inkscape:current-layer="Group_8932" />
<style
   type="text/css"
   id="style2">
	.st0{fill:#28B8CE;}
	.st1{fill:none;}
	.st2{fill:#FFFFFF;}
</style>
<g
   id="Group_8932">
	<path
   id="Path_18926"
   class="st0"
   d="M12,2C6.5,2,2,6.5,2,12s4.5,10,10,10s10-4.5,10-10S17.5,2,12,2z M12,21.3   c-5.1,0-9.3-4.1-9.3-9.3S6.9,2.8,12,2.8s9.3,4.1,9.3,9.3S17.1,21.3,12,21.3L12,21.3z"
   style="fill:#98d6fd;fill-opacity:1" />
	<path
   id="Path_18927"
   class="st0"
   d="M12,3.5c-4.7,0-8.5,3.8-8.5,8.5s3.8,8.5,8.5,8.5s8.5-3.8,8.5-8.5S16.7,3.5,12,3.5z M7.6,12.5   l4.7-5.6H7.7V6h5.9v0.8L9,12.3h4.7v0.8H7.6V12.5z"
   style="fill:#98d6fd;fill-opacity:1" />
</g>
<path
   id="Rectangle_4542"
   class="st1"
   d="M0,0h24v24H0V0z" />
<g
   id="g12">
	<g
   id="g10">
		<path
   class="st2"
   d="M11.6,10.2H14c1.7,0,2.9,0.6,2.9,2.3c0,1.7-1.2,2.4-2.9,2.4h-1.4v3.1h-1V10.2z M13.8,14.2c1.4,0,2-0.5,2-1.6    c0-1.1-0.7-1.5-2-1.5h-1.2v3.1H13.8z"
   id="path8" />
	</g>
</g>
</svg>
