<?xml version="1.0" encoding="UTF-8" standalone="no"?>
<!-- Generator: Adobe Illustrator 23.1.0, SVG Export Plug-In . SVG Version: 6.00 Build 0)  -->

<svg
   version="1.1"
   id="Layer_1"
   x="0px"
   y="0px"
   viewBox="0 0 24 40"
   style="enable-background:new 0 0 24 40;"
   xml:space="preserve"
   sodipodi:docname="ic-nav-privacy-active.svg"
   inkscape:version="1.1 (c68e22c387, 2021-05-23)"
   xmlns:inkscape="http://www.inkscape.org/namespaces/inkscape"
   xmlns:sodipodi="http://sodipodi.sourceforge.net/DTD/sodipodi-0.dtd"
   xmlns="http://www.w3.org/2000/svg"
   xmlns:svg="http://www.w3.org/2000/svg"><defs
   id="defs15" /><sodipodi:namedview
   id="namedview13"
   pagecolor="#ffffff"
   bordercolor="#666666"
   borderopacity="1.0"
   inkscape:pageshadow="2"
   inkscape:pageopacity="0.0"
   inkscape:pagecheckerboard="0"
   showgrid="false"
   inkscape:zoom="20.3"
   inkscape:cx="11.995074"
   inkscape:cy="19.975369"
   inkscape:window-width="1920"
   inkscape:window-height="1001"
   inkscape:window-x="-9"
   inkscape:window-y="-9"
   inkscape:window-maximized="1"
   inkscape:current-layer="Group" />
<style
   type="text/css"
   id="style2">
	.st0{fill:#F39779;}
</style>
<title
   id="title4">Privacy Active</title>
<desc
   id="desc6">Created with Sketch.</desc>
<g
   id="Privacy-Active">
	<g
   id="Group"
   transform="translate(1.000000, 13.000000)">
		<path
   id="Path_18869"
   class="st0"
   d="M20,10.1L17.8,0L11,1.2L4.2,0L2,10.1H0v2h22v-2H20z M5.8,2.3L11,3.2l5.2-0.9l1.7,7.8H4    L5.8,2.3z"
   style="fill:#98d6fd;fill-opacity:1" />
		<path
   id="Path_18870"
   class="st0"
   d="M12,16.1h-2v-2H1v3.7c0.1,2.4,2.1,4.3,4.5,4.3c2.3-0.1,4.2-1.8,4.5-4H12c0.3,2.2,2.2,4,4.5,4    c2.4,0,4.4-1.9,4.5-4.3v-3.7h-9V16.1z M8,17.9c-0.1,1.3-1.2,2.3-2.5,2.3s-2.4-1-2.5-2.3v-1.7h5V17.9z M14,16.1h5v1.7    c-0.1,1.3-1.2,2.3-2.5,2.3s-2.4-1-2.5-2.3V16.1z"
   style="fill:#98d6fd;fill-opacity:1" />
	</g>
</g>
</svg>
