<?xml version="1.0" encoding="UTF-8" standalone="no"?>
<!-- Generator: Adobe Illustrator 23.1.0, SVG Export Plug-In . SVG Version: 6.00 Build 0)  -->

<svg
   version="1.1"
   id="Layer_1"
   x="0px"
   y="0px"
   viewBox="0 0 24 30"
   style="enable-background:new 0 0 24 30;"
   xml:space="preserve"
   sodipodi:docname="ic-nav-master-active.svg"
   inkscape:version="1.1 (c68e22c387, 2021-05-23)"
   xmlns:inkscape="http://www.inkscape.org/namespaces/inkscape"
   xmlns:sodipodi="http://sodipodi.sourceforge.net/DTD/sodipodi-0.dtd"
   xmlns="http://www.w3.org/2000/svg"
   xmlns:svg="http://www.w3.org/2000/svg"><defs
   id="defs15" /><sodipodi:namedview
   id="namedview13"
   pagecolor="#ffffff"
   bordercolor="#666666"
   borderopacity="1.0"
   inkscape:pageshadow="2"
   inkscape:pageopacity="0.0"
   inkscape:pagecheckerboard="0"
   showgrid="false"
   inkscape:zoom="27.066667"
   inkscape:cx="11.988916"
   inkscape:cy="15.018473"
   inkscape:window-width="1920"
   inkscape:window-height="1001"
   inkscape:window-x="-9"
   inkscape:window-y="-9"
   inkscape:window-maximized="1"
   inkscape:current-layer="Group-2" />
<style
   type="text/css"
   id="style2">
	.st0{fill:#F39779;}
	.st1{fill-rule:evenodd;clip-rule:evenodd;fill:#F39779;}
</style>
<title
   id="title4">Master Active</title>
<desc
   id="desc6">Created with Sketch.</desc>
<g
   id="Master-Active">
	<g
   id="Group-2"
   transform="translate(1.000000, 7.000000)">
		<path
   id="Path_18873"
   class="st0"
   d="M20.4,15.4c0.4-1.1,0.6-2.2,0.6-3.4c0-4.4-2.9-8.2-7.1-9.6C13.7,1,12.4,0,11,0S8.3,1,8,2.4    C5.4,3.2,3.3,5.1,2,7.5s-1.4,5.3-0.5,7.8c-1,0.6-1.6,1.7-1.6,2.8c0.1,1.2,0.8,2.2,2,2.6c1.1,0.4,2.3,0.1,3.2-0.7    c3.5,2.5,8.2,2.5,11.7,0c0.8,0.8,2.1,1.1,3.2,0.7c1.1-0.4,1.9-1.4,2-2.6C22.1,17,21.4,15.9,20.4,15.4L20.4,15.4z M11,2    c0.6,0,1,0.4,1,1s-0.4,1-1,1c-0.6,0-1-0.4-1-1S10.4,2,11,2z M3,19c-0.6,0-1-0.4-1-1c0-0.6,0.4-1,1-1s1,0.4,1,1C4,18.5,3.5,19,3,19    z M11,20c-1.8,0-3.6-0.6-5-1.8c0-0.1,0-0.1,0-0.2c0-1.4-1-2.6-2.4-2.9c-0.9-2-0.8-4.3,0.1-6.3s2.6-3.6,4.7-4.3C8.9,5.4,9.9,6,11,6    s2.1-0.6,2.6-1.6C16.8,5.5,19,8.6,19,12c0,1.1-0.2,2.1-0.6,3.1C17,15.3,16,16.6,16,18c0,0.1,0,0.1,0,0.2C14.6,19.3,12.8,20,11,20z     M19,19c-0.6,0-1-0.4-1-1c0-0.6,0.4-1,1-1c0.6,0,1,0.4,1,1C20,18.5,19.5,19,19,19z"
   style="fill:#98d6fd;fill-opacity:1" />
		<polygon
   id="Path_18874"
   class="st1"
   points="16,16 16,7.6 11,11.7 6,7.6 6,16 8,16 8,11.8 11,14.3 14,11.8 14,16   "
   style="fill:#98d6fd;fill-opacity:1" />
	</g>
</g>
</svg>
