<?xml version="1.0" encoding="UTF-8" standalone="no"?>
<!-- Generator: Adobe Illustrator 23.1.0, SVG Export Plug-In . SVG Version: 6.00 Build 0)  -->

<svg
   version="1.1"
   id="Layer_1"
   x="0px"
   y="0px"
   viewBox="0 0 24 24"
   style="enable-background:new 0 0 24 24;"
   xml:space="preserve"
   sodipodi:docname="ic-radio-liliac-on.svg"
   inkscape:version="1.1 (c68e22c387, 2021-05-23)"
   xmlns:inkscape="http://www.inkscape.org/namespaces/inkscape"
   xmlns:sodipodi="http://sodipodi.sourceforge.net/DTD/sodipodi-0.dtd"
   xmlns="http://www.w3.org/2000/svg"
   xmlns:svg="http://www.w3.org/2000/svg"><defs
   id="defs9" /><sodipodi:namedview
   id="namedview7"
   pagecolor="#ffffff"
   bordercolor="#666666"
   borderopacity="1.0"
   inkscape:pageshadow="2"
   inkscape:pageopacity="0.0"
   inkscape:pagecheckerboard="0"
   showgrid="false"
   inkscape:zoom="33.833333"
   inkscape:cx="11.985222"
   inkscape:cy="12.014778"
   inkscape:window-width="1920"
   inkscape:window-height="1001"
   inkscape:window-x="-9"
   inkscape:window-y="-9"
   inkscape:window-maximized="1"
   inkscape:current-layer="radiobttom_active" />
<style
   type="text/css"
   id="style2">
	.st0{fill-rule:evenodd;clip-rule:evenodd;fill:#F39779;}
</style>
<g
   id="radiobttom_active"
   transform="translate(-508 -240)">
	<path
   id="radio_on"
   class="st0"
   d="M520,246c-3.3,0-6,2.7-6,6s2.7,6,6,6s6-2.7,6-6c0-3.3-2.6-6-5.9-6C520.1,246,520,246,520,246z    M520,240c-6.6,0-12,5.4-12,12s5.4,12,12,12s12-5.4,12-12C532,245.4,526.6,240,520,240z M520,261.6c-5.3,0-9.6-4.3-9.6-9.6   s4.3-9.6,9.6-9.6s9.6,4.3,9.6,9.6C529.6,257.3,525.3,261.6,520,261.6z"
   style="fill:#98d6fd;fill-opacity:1" />
</g>
</svg>
