<?xml version="1.0" encoding="UTF-8" standalone="no"?>
<!-- Generator: Adobe Illustrator 23.1.0, SVG Export Plug-In . SVG Version: 6.00 Build 0)  -->

<svg
   version="1.1"
   id="Layer_1"
   x="0px"
   y="0px"
   viewBox="0 0 40 26"
   style="enable-background:new 0 0 40 26;"
   xml:space="preserve"
   sodipodi:docname="ic-switch-liliac-on.svg"
   inkscape:version="1.1 (c68e22c387, 2021-05-23)"
   xmlns:inkscape="http://www.inkscape.org/namespaces/inkscape"
   xmlns:sodipodi="http://sodipodi.sourceforge.net/DTD/sodipodi-0.dtd"
   xmlns="http://www.w3.org/2000/svg"
   xmlns:svg="http://www.w3.org/2000/svg"><defs
   id="defs12" /><sodipodi:namedview
   id="namedview10"
   pagecolor="#ffffff"
   bordercolor="#666666"
   borderopacity="1.0"
   inkscape:pageshadow="2"
   inkscape:pageopacity="0.0"
   inkscape:pagecheckerboard="0"
   showgrid="false"
   inkscape:zoom="31.230769"
   inkscape:cx="19.996305"
   inkscape:cy="12.98399"
   inkscape:window-width="1920"
   inkscape:window-height="1001"
   inkscape:window-x="-9"
   inkscape:window-y="-9"
   inkscape:window-maximized="1"
   inkscape:current-layer="switch_on" />
<style
   type="text/css"
   id="style2">
	.st0{opacity:0.5;fill-rule:evenodd;clip-rule:evenodd;fill:#F39779;enable-background:new    ;}
	.st1{fill:#F39779;}
</style>
<g
   id="switch_on"
   transform="translate(0 1)">
	<path
   id="switch_path"
   class="st0"
   d="M34,10.2c0,3.8-3.1,7-6.9,7c0,0-0.1,0-0.1,0H7c-3.8,0-7-3.1-7-6.9c0,0,0-0.1,0-0.1   c0-3.8,3.1-7,6.9-7c0,0,0.1,0,0.1,0h20C30.8,3.2,34,6.3,34,10.2C34,10.2,34,10.2,34,10.2z"
   style="fill:#98d6fd;fill-opacity:1" />
	<g
   transform="translate(0 -1)"
   id="g6">
		<path
   id="switch_button-2"
   class="st1"
   d="M27,1c5.5,0,10,4.5,10,10s-4.5,10-10,10s-10-4.5-10-10S21.5,1,27,1z"
   style="fill:#98d6fd;fill-opacity:1" />
	</g>
</g>
</svg>
