<?xml version="1.0" encoding="utf-8"?>
<!-- Generator: Adobe Illustrator 24.1.3, SVG Export Plug-In . SVG Version: 6.00 Build 0)  -->
<svg version="1.1" id="ic_empty_zterra_pgo" xmlns="http://www.w3.org/2000/svg" xmlns:xlink="http://www.w3.org/1999/xlink"
	 x="0px" y="0px" viewBox="0 0 100 100" style="enable-background:new 0 0 100 100;" xml:space="preserve">
<style type="text/css">
	.st0{fill:#D6D6D6;}
	.st1{fill:#666666;}
	.st2{fill:none;}
</style>
<g id="Group_9086">
	<path id="Path_19031" class="st0" d="M50,26c-13.3,0-24,10.7-24,24s10.7,24,24,24s24-10.7,24-24S63.3,26,50,26z M50,68
		c-9.9,0-18-8.1-18-18s8.1-18,18-18s18,8.1,18,18S59.9,68,50,68z"/>
	<g id="Group_9085">
		<g id="Group_9083">
			<path id="Path_19032" class="st1" d="M50,31c-10.5,0-19,8.5-19,19s8.5,19,19,19s19-8.5,19-19S60.5,31,50,31z M50,67
				c-9.4,0-17-7.6-17-17s7.6-17,17-17s17,7.6,17,17S59.4,67,50,67z"/>
			<path id="Rectangle_4749" class="st1" d="M83,56h2v4h-2V56z"/>
			<path id="Rectangle_4750" class="st1" d="M83,44h2v8h-2V44z"/>
			<path id="Rectangle_4751" class="st1" d="M15,48h2v8h-2V48z"/>
			<path id="Rectangle_4752" class="st1" d="M15,40h2v4h-2V40z"/>
			<path id="Path_19033" class="st1" d="M95.2,71H85v-7h-2v9h7.8L76,90.5L61.2,73H68v-2h-4.5c11.6-7.5,15-22.9,7.5-34.5
				c-6.4-9.9-18.9-14-29.9-9.8L24,6.5L4.8,29H15v7h2v-9H9.2L24,9.5L38.8,27H32v2h4.5c-11.6,7.5-15,22.9-7.5,34.5
				c6.4,9.9,18.9,14,29.9,9.8L76,93.5L95.2,71z M27,50c0-12.7,10.3-23,23-23s23,10.3,23,23S62.7,73,50,73S27,62.7,27,50z"/>
		</g>
		<path id="Path_19035" class="st1" d="M52.8,38H41v1.7h9.2l-9.5,11.2v1.4H53v-1.7h-9.4l9.3-11L52.8,38z"/>
	</g>
</g>
<path id="Rectangle_4753" class="st2" d="M0,0h100v100H0V0z"/>
<g>
	<g>
		<path class="st1" d="M49,45.5h5c3.6,0,6.1,1.2,6.1,4.7c0,3.4-2.5,5-6.1,5h-2.9v6.3H49V45.5z M53.7,53.5c2.9,0,4.2-1,4.2-3.3
			c0-2.3-1.4-3-4.2-3h-2.6v6.3H53.7z"/>
	</g>
</g>
</svg>
